<svg xmlns="http://www.w3.org/2000/svg" version="1.0" preserveAspectRatio="xMidYMid meet" viewBox="442.1 488.11 420 449.89">

<g transform="translate(0.000000,938.000000) scale(0.100000,-0.100000)" fill="#000000" stroke="none">
<path d="M6370 4484 c-130 -34 -221 -104 -269 -204 -24 -50 -26 -66 -26 -175 1 -107 4 -127 27 -183 15 -35 45 -89 66 -122 l39 -58 -31 -6 c-152 -29 -558 -331 -721 -536 -234 -297 -275 -612 -121 -946 45 -96 143 -246 229 -349 37 -44 67 -84 67 -90 0 -5 -18 -75 -39 -155 -99 -369 -96 -354 -77 -405 40 -104 148 -160 416 -212 55 -11 -269 -97 -435 -115 -70 -8 -167 -9 -322 -2 -122 5 -250 6 -285 2 -145 -17 -308 -141 -416 -317 l-51 -84 86 -126 c160 -233 257 -347 324 -381 l35 -18 19 34 c20 37 51 61 99 75 35 11 463 69 686 94 370 42 580 110 768 252 l84 63 61 -46 c201 -151 526 -242 1052 -294 312 -32 414 -54 482 -106 19 -14 39 -37 45 -50 l11 -24 48 27 c96 52 187 163 367 449 l33 52 -36 61 c-69 118 -167 223 -258 280 -49 29 -147 60 -202 62 -28 1 -153 -2 -280 -6 -294 -10 -438 9 -685 89 -60 19 -70 25 -50 29 14 3 59 12 101 21 209 42 329 132 329 246 0 39 -25 133 -84 320 -19 58 -36 125 -40 150 -6 44 -4 47 50 110 80 93 196 271 244 373 23 48 53 132 66 185 23 85 25 111 21 217 -9 222 -86 401 -250 583 -175 195 -509 437 -664 483 -24 7 -43 14 -43 16 0 2 11 19 24 36 60 81 106 213 106 307 0 53 -29 171 -54 219 -45 85 -153 160 -266 181 -75 14 -215 11 -280 -6z m221 -235 c51 -17 99 -57 115 -95 30 -72 10 -179 -43 -226 -82 -75 -249 -56 -310 35 -29 42 -39 113 -23 162 15 46 65 104 105 121 37 16 111 18 156 3z m69 -659 c98 -34 225 -101 341 -178 323 -217 508 -439 555 -665 13 -62 13 -76 -6 -170 -54 -268 -107 -347 -271 -403 -187 -63 -719 -93 -1134 -64 -414 30 -540 91 -611 300 -41 121 -60 259 -46 339 16 97 95 247 185 351 170 198 483 416 709 495 89 31 179 30 278 -5z m-675 -1660 c288 -27 898 -22 1154 11 41 5 76 7 78 6 2 -2 -4 -23 -12 -47 -19 -55 -19 -180 0 -227 8 -19 15 -37 15 -39 0 -1 -15 2 -32 7 -134 38 -679 60 -988 40 -169 -11 -326 -31 -362 -46 -17 -7 -17 -5 -3 29 27 65 30 144 6 213 -26 78 -26 76 7 69 15 -3 77 -10 137 -16z m1102 -455 c121 -23 198 -77 191 -134 -4 -33 -50 -56 -138 -71 -201 -33 -1154 -39 -1272 -8 -76 20 -108 42 -108 74 0 35 27 78 62 98 29 18 177 38 409 56 162 12 766 2 856 -15z m-499 -409 c26 -14 94 -59 152 -101 111 -80 263 -160 370 -195 106 -34 215 -48 595 -76 391 -28 433 -36 501 -96 48 -43 61 -95 35 -152 -24 -55 -57 -78 -113 -78 -24 0 -120 11 -215 26 -95 14 -210 26 -255 26 -89 0 -304 27 -483 61 -291 55 -504 164 -608 309 -23 32 -45 59 -48 59 -3 1 -10 -9 -16 -21 -6 -13 -30 -45 -53 -71 -164 -185 -550 -307 -1070 -337 -91 -5 -232 -20 -314 -33 -191 -31 -232 -24 -263 50 -50 121 39 208 242 238 55 8 210 19 345 24 330 14 509 42 663 107 72 31 93 43 177 109 143 112 244 175 283 175 15 0 49 -11 75 -24z"/>
<path d="M6404 3226 c-3 -7 -4 -70 -2 -139 l3 -126 -110 -3 -110 -3 0 -125 0 -125 110 -3 110 -3 -3 -139 -3 -140 120 0 121 0 0 140 0 140 110 0 110 0 0 130 0 130 -110 0 -110 0 0 140 0 140 -115 0 c-89 0 -117 -3 -121 -14z"/>

</g>
</svg>