<svg xmlns="http://www.w3.org/2000/svg" version="1.0" preserveAspectRatio="xMidYMid meet" viewBox="942 70 326 381">

<g transform="translate(0.000000,938.000000) scale(0.100000,-0.100000)" fill="#000000" stroke="none">
<path d="M9602 8592 l-93 -87 1 -300 0 -300 285 -249 285 -248 0 -652 0 -651 -330 -330 -330 -330 0 -230 0 -231 58 -57 58 -57 1510 0 1510 0 62 63 62 63 0 221 0 221 -330 334 -329 333 0 655 0 655 285 248 284 247 0 293 0 292 -93 93 -92 92 -295 0 -295 0 -57 -51 -58 -51 0 -89 0 -89 -90 0 -90 0 0 82 0 82 -57 58 -57 58 -361 0 -361 0 -52 -53 -52 -53 0 -87 0 -87 -95 0 -95 0 0 88 0 88 -53 52 -53 52 -294 0 -295 -1 -93 -87z m578 -259 l0 -87 47 -48 47 -48 216 0 215 0 48 46 47 45 0 85 0 84 245 0 245 0 0 -84 0 -84 51 -46 51 -46 212 0 211 1 48 44 47 43 0 91 0 91 183 0 183 0 42 -43 42 -43 0 -184 0 -185 -221 -177 -221 -178 -871 0 -872 1 -222 180 -223 180 0 175 0 175 42 50 41 49 184 0 183 0 0 -87z m1610 -1518 l0 -575 -740 0 -740 0 0 575 0 575 740 0 740 0 0 -575z m223 -982 c106 -102 201 -194 212 -205 19 -18 -13 -18 -1175 -18 l-1195 1 210 204 210 204 773 1 773 0 192 -187z m437 -578 l0 -125 -1405 0 -1405 0 0 125 0 125 1405 0 1405 0 0 -125z"/>
</g>
</svg>